<svg width="511" height="511" viewBox="0 0 511 511" fill="none" xmlns="http://www.w3.org/2000/svg">
<g clip-path="url(#clip0)">
<path d="M255.5 511C396.609 511 511 396.609 511 255.5C511 114.391 396.609 0 255.5 0C114.391 0 0 114.391 0 255.5C0 396.609 114.391 511 255.5 511Z" fill="#28C0FF"/>
<path d="M285.251 1.7793L274.702 34.643C272.149 42.5964 265.754 48.7234 257.698 50.9321L231.237 58.1869C229.108 58.7708 226.908 59.0672 224.699 59.0672H185.105C180.974 59.0672 177.482 62.1252 176.936 66.2192L172.395 100.277L147.104 101.601C142.851 101.824 139.469 105.249 139.299 109.503L138.424 131.483C138.227 136.433 142.408 140.437 147.344 140.026L164.193 138.621C168.524 138.26 172.48 136.017 175.014 132.484L190.596 110.751L223.924 109.56C231.052 109.306 236.088 116.478 233.5 123.125C227.692 138.039 227.684 139.316 227.684 140.628C227.684 145.184 231.371 148.869 235.926 148.869C239.999 148.869 243.388 145.907 244.047 142.028C244.61 140.129 247.127 133.543 250.423 125.184C251.799 121.693 256.541 121.179 258.609 124.311L260.74 127.535C264.679 133.499 272.014 136.243 278.9 134.332L293.617 130.248C297.719 129.11 301.032 126.082 302.533 122.099L305.355 114.609C307.349 109.321 311.913 105.422 317.448 104.28L326.959 102.317C333.432 100.981 340.294 104.894 341.421 111.407C342.572 118.06 337.897 124.104 331.402 124.848L308.468 125.464C303.804 125.59 300.058 129.348 299.947 134.012L299.895 136.208C299.853 137.972 300.826 139.604 302.397 140.405L315.585 147.134C320.606 149.695 322.241 156.078 319.073 160.739C317.329 163.303 314.431 164.837 311.33 164.837H241.773C239.952 164.837 238.148 164.495 236.454 163.827L178.086 140.834C173.767 139.132 168.856 140.054 165.446 143.205L110.168 194.295C105.762 198.368 103.917 204.514 105.351 210.34L116.59 255.998C118.324 263.045 124.464 268.128 131.711 268.518L193.987 271.867C206.24 272.525 216.156 282.071 217.282 294.289L222.006 345.576C222.359 349.412 223.37 353.112 225.036 356.587C230.283 367.535 242.518 392.419 249.32 401.021C258.077 412.096 279.652 412.535 286.924 405.914L337.558 364.48C341.79 360.628 344.554 355.427 345.38 349.764L351.313 309.072L391.521 264.761C395.437 260.443 393.679 253.823 388.694 251.684L387.974 252.167C384.924 254.211 381.406 255.451 377.768 255.773C377.124 255.829 376.48 255.862 375.837 255.862C368.383 255.862 361.47 252.079 357.454 245.688L326.756 196.944C324.333 193.089 325.492 188.002 329.34 185.572C333.219 183.165 338.282 184.316 340.712 188.156L371.41 236.907C372.464 238.598 374.331 239.515 376.328 239.354C377.205 239.273 378.066 238.968 378.807 238.477L420.301 215.738C424.625 213.367 425.771 207.672 422.698 203.815C420.989 201.67 418.296 200.557 415.573 200.87L406.857 201.872C404.515 202.141 402.171 201.396 400.414 199.825L374.315 176.478C370.927 173.444 370.638 168.237 373.672 164.84C376.698 161.444 381.906 161.162 385.31 164.196L408.651 185.075L422.834 183.441C425.772 183.078 428.685 184.366 430.432 186.765L433.16 190.5L446.983 188.841C453.701 188.035 460.228 191.415 463.447 197.367L491.36 248.979C493.385 252.723 496.781 255.54 500.836 256.836L510.877 260.363C510.907 258.74 511 257.132 511 255.502C511 124.461 412.333 16.5264 285.251 1.7793ZM391.983 142.817C390.575 143.775 388.965 144.234 387.379 144.234C384.731 144.234 382.131 142.962 380.545 140.604L363.377 115.193C360.826 111.427 361.815 106.3 365.591 103.756C369.349 101.196 374.492 102.203 377.028 105.969L394.197 131.38C396.748 135.146 395.758 140.273 391.983 142.817Z" fill="#8CB73B"/>
<path d="M339.293 427.207C198.184 427.207 83.793 312.816 83.793 171.707C83.793 122.623 97.6619 76.7906 121.654 37.8618C48.6708 82.8428 0 163.475 0 255.5C0 396.609 114.391 511 255.5 511C347.525 511 428.158 462.329 473.139 389.345C434.209 413.338 388.378 427.207 339.293 427.207Z" fill="#00C3FF"/>
<path d="M366.758 390.462C364.891 390.462 363.008 389.826 361.463 388.531C357.977 385.601 357.526 380.402 360.457 376.916L382.091 351.161C385.013 347.684 390.22 347.224 393.706 350.155C397.191 353.085 397.642 358.284 394.712 361.769L373.077 387.525C371.45 389.464 369.109 390.462 366.758 390.462Z" fill="#8CB73B"/>
<path d="M185.211 9.87191L177.878 31.7212C176.429 36.0357 178.755 40.7116 183.07 42.1607C183.939 42.4502 184.824 42.5869 185.694 42.5869C189.139 42.5869 192.35 40.4142 193.509 36.9689L204.184 5.16113C197.759 6.46957 191.45 8.0894 185.211 9.87191Z" fill="#8CB73B"/>
<path d="M42.7903 397.034L49.9214 332.247C50.4912 327.162 48.6668 322.101 44.984 318.549L0.999084 277.417C4.73976 321.414 19.5877 362.233 42.7903 397.034Z" fill="#94C820"/>
<path d="M255.5 0C246.257 0 237.137 0.517986 228.148 1.47511L227.289 20.8143C225.132 27.2936 228.626 34.2959 235.105 36.4527C236.4 36.8868 237.721 37.0884 239.016 37.0884C244.191 37.0884 249.021 33.8128 250.743 28.637L260.249 0.119766C258.663 0.0908223 257.093 0 255.5 0Z" fill="#8CB73B"/>
</g>
<defs>
<clipPath id="clip0">
<rect width="511" height="511" fill="white"/>
</clipPath>
</defs>
</svg>
