<svg width="220" height="220" viewBox="0 0 220 220" fill="none" xmlns="http://www.w3.org/2000/svg">
<path d="M109.993 219.992C170.74 219.992 219.985 170.747 219.985 110C219.985 49.2522 170.74 0.00683594 109.993 0.00683594C49.2454 0.00683594 0 49.2522 0 110C0 170.747 49.2454 219.992 109.993 219.992Z" fill="url(#paint0_linear)"/>
<path d="M56.5384 202.299C56.5177 202.34 56.4902 202.368 56.4695 202.409C56.6348 202.45 56.7931 202.505 56.9584 202.54L56.5384 202.299Z" fill="#E9EFF4"/>
<path d="M49.6189 47.2722L49.3986 46.8246C51.2369 46.5492 51.3608 45.2549 52.7584 44.7798C54.3488 44.2566 53.8049 44.828 55.3678 44.7798C56.6346 44.7247 57.4057 45.6473 58.8515 44.9726C58.5004 45.5922 57.929 46.0191 57.3575 46.4391C56.1664 47.2859 54.9478 48.1534 53.5295 48.4839C52.1113 48.8075 50.4451 48.4632 49.6189 47.2722Z" fill="#E9EFF4"/>
<path d="M71.623 145.313C71.5955 146.284 71.0241 147.13 70.5284 147.95C68.3183 151.557 66.9758 155.736 66.6797 159.971C66.3837 164.026 66.5627 169.024 63.0307 171.021C61.0135 172.143 58.1769 171.943 56.8343 173.837C56.4144 174.408 56.2147 175.131 56.015 175.806C55.1475 178.966 54.2732 182.126 53.4057 185.286C52.2834 185.19 51.1406 185.066 50.0252 184.942C51.3471 185.362 52.2628 187.152 51.471 188.378C50.2042 187.71 48.5381 188.502 47.8358 189.775C47.168 191.042 47.2644 192.584 47.6362 193.982C48.7859 198.113 52.3179 201.445 56.4763 202.437C55.7534 203.807 53.5434 203.208 52.1939 202.292C42.562 195.779 35.2916 185.858 31.9731 174.711C30.8027 170.78 30.0522 166.601 27.7595 163.22C25.8455 160.363 22.9539 158.27 21.0399 155.413C18.3548 151.309 17.8522 145.987 14.7403 142.235C12.9984 140.094 10.3064 137.464 11.8486 135.171C12.4682 134.228 13.7901 133.333 13.2669 132.335C13.0948 132.011 12.7436 131.812 12.4682 131.536C11.4217 130.414 12.1447 128.651 12.6679 127.206C13.5354 124.693 13.5354 122.007 13.1636 119.322C10.5474 116.982 8.48191 114.076 7.18756 110.813C6.41645 108.823 5.3906 106.338 3.25629 106.31C2.70551 104.768 2.13406 103.226 1.58327 101.683C1.38361 102.234 0.839706 102.578 0.240723 102.654C1.89309 77.4486 12.0552 54.5771 27.8697 36.8554C28.2208 36.7039 28.5651 36.5043 28.9162 36.3046C32.6685 34.1152 35.6565 30.8311 39.2848 28.4421C40.0284 27.9464 40.8752 27.4713 41.7978 27.5677C42.6928 27.6435 43.5397 28.5591 43.2161 29.406C43.0921 29.7571 42.7961 30.0325 42.4932 30.2528C38.2452 33.8674 33.591 37.0275 28.6408 39.6438C28.0487 39.9398 27.4222 40.291 27.1537 40.8899C26.6511 41.9089 27.4979 43.1757 28.572 43.5475C29.6391 43.9193 30.8371 43.699 31.9318 43.4511C31.0092 44.7661 30.7338 46.5355 31.2089 48.0777C32.2278 48.1741 32.5514 46.7834 32.8543 45.8126C34.0936 41.9571 40.2418 40.3873 39.8425 36.3253C41.5086 37.1928 43.2023 35.2512 44.2213 33.6608C45.2402 32.0429 47.5053 30.4525 48.7515 31.8708C48.8204 32.6625 48.9167 33.4612 48.9925 34.2598C51.1819 33.709 53.3988 33.1376 55.5882 32.5868C54.342 33.4612 53.922 35.327 54.6381 36.6695C55.361 38.0121 57.151 38.6868 58.5693 38.136C58.5487 39.3064 57.5022 40.2015 56.5521 40.8968C54.1424 42.7144 51.5536 44.5802 48.7446 45.4753L49.3918 46.8178C49.323 46.8454 49.2472 46.8729 49.1715 46.8729C47.3814 47.045 45.4881 45.7575 43.5741 46.0054C42.4037 46.1569 40.9647 46.1569 40.29 47.348C40.1936 47.4994 39.7736 49.5855 40.0697 49.4134C41.1162 48.8144 42.1558 48.2154 43.1816 47.6233C43.4984 48.4702 43.5741 49.4134 43.402 50.336C44.6688 50.2121 45.9907 50.4806 47.1129 51.1553C45.9425 53.8679 42.9338 55.6855 39.9733 55.4583C39.9458 54.5633 39.8976 53.6683 39.87 52.7732C37.4328 52.5736 35.4431 54.6666 34.2244 56.7596C32.9852 58.8732 32.0419 61.2898 29.9971 62.6324C28.7578 63.4792 27.2363 63.8028 25.8937 64.4982C24.5787 65.2211 23.3601 66.5912 23.6355 68.0576C23.7594 68.753 24.2069 69.4002 24.1863 70.1231C24.1106 71.4657 22.5477 72.0922 21.5012 72.9597C19.7111 74.4537 19.2636 77.1939 17.3496 78.5089C15.9589 79.4796 14.1137 79.459 12.4958 79.9547C10.8778 80.4504 9.2599 82.0684 9.91396 83.6381C9.11532 83.9135 8.14455 83.3145 8.06882 82.4677C5.2116 88.0926 3.32514 94.2133 2.55404 100.485C3.97232 101.477 5.41126 99.2117 5.68665 97.4974C5.9827 95.783 7.47672 93.5386 8.86746 94.5575C8.54387 97.0223 8.22029 99.4595 7.90358 101.924C7.82785 102.399 7.77965 102.895 8.00685 103.315C8.28225 103.838 8.87435 104.059 9.32875 104.43C10.5956 105.525 10.4234 107.467 10.4992 109.133C10.5749 111.171 11.2496 113.16 12.3168 114.902C12.2135 114.551 12.1447 114.207 12.0689 113.856C14.0105 114.104 16.0277 113.477 17.4942 112.183C18.2653 111.487 18.9125 110.592 19.8833 110.241C20.8816 109.869 21.9763 110.138 22.9952 110.413C26.1554 111.281 29.5152 112.252 31.6288 114.737C32.696 116.004 33.3707 117.601 34.6444 118.641C37.5292 121.078 42.4105 120.004 45.0475 122.717C47.1611 124.906 46.7687 128.438 46.1972 131.447C44.7514 130.655 42.8167 132.645 43.6636 134.063C44.4347 133.216 45.3297 132.321 46.452 132.321C47.5949 132.293 48.5932 133.863 47.7463 134.586C49.736 132.046 54.6105 133.092 55.3816 136.252C58.17 136.452 60.979 136.645 63.7674 136.872C63.2304 140.962 71.7952 141.202 71.623 145.313Z" fill="#E9EFF4"/>
<path d="M54.6659 30.2045C53.5919 30.7346 52.1116 30.1356 51.7123 29.0065C51.3061 27.8774 52.0703 26.4798 53.2407 26.2113C53.9774 26.0391 55.0033 26.1218 55.2305 25.3988C55.2993 25.1785 55.258 24.9376 55.258 24.7104C55.2305 23.3472 56.4491 22.218 57.7641 21.8738C59.0791 21.5364 60.4698 21.7981 61.8055 22.0597C62.2806 23.0442 62.4183 24.1871 62.1911 25.2543C61.2754 25.2956 60.3597 25.33 59.444 25.3713C59.5266 26.8929 59.3751 28.8069 57.9637 29.3714C56.6969 29.874 55.0446 28.9377 53.9912 29.7914" fill="#E9EFF4"/>
<path d="M68.9244 15.0096C71.4236 13.8117 73.5373 11.9252 76.0021 10.6584C80.2432 8.48278 85.1934 8.29001 89.9577 8.13854C100.801 7.80118 111.645 7.46382 122.489 7.12646C119.976 8.50344 117.463 9.8873 114.943 11.2643C112.891 12.3934 110.557 13.55 108.306 12.9098C108.258 14.7205 109.903 16.4004 111.721 16.3866C107.266 19.1406 101.084 16.3247 96.3813 18.638C94.4122 19.6087 92.8218 21.4401 90.6531 21.7844C89.4 21.984 88.0988 21.6467 86.8526 21.9221C84.7665 22.3765 83.4515 24.3524 81.9093 25.8258C80.133 27.5263 77.5236 28.6899 75.2034 27.8775C72.8832 27.0651 71.6715 23.6157 73.5304 22.0047C74.4461 21.2129 75.7542 21.0821 76.8352 20.5244C77.9161 19.9736 78.7698 18.4934 77.9574 17.5915C77.6063 17.199 77.0279 17.0476 76.7043 16.6276C76.3532 16.1732 76.3876 15.526 76.0985 15.0303C74.9969 13.0956 71.9331 15.6981 69.847 14.9201" fill="#E9EFF4"/>
<path d="M101.854 24.1597C103.321 23.8224 104.594 22.9549 105.965 22.3215C107.335 21.6881 108.966 21.3163 110.309 21.9841C110.708 22.9824 109.558 23.8912 108.546 24.2493C106.605 24.9309 104.498 25.1167 102.467 24.7794" fill="#E9EFF4"/>
<path d="M190.511 35.0996C190.112 35.1478 189.692 35.1272 189.265 35.0239C187.399 34.6246 185.981 33.1856 184.384 32.1391C180.7 29.7019 175.674 29.3852 171.695 31.3749C172.638 30.0048 173.113 28.3111 173.01 26.645L172.438 26.8447C165.918 23.0649 158.276 19.1405 151.164 21.681C149.519 22.28 148.031 23.175 146.365 23.7465C144.596 24.3661 142.634 24.6209 141.119 25.7155C139.577 26.8102 138.758 29.2268 140.079 30.5418C141.202 31.6641 142.992 31.3611 144.561 31.5126C146.104 31.6641 147.873 33.1994 147.026 34.5213C140.21 37.709 133.374 40.9242 126.558 44.1395C129.69 45.1584 131.763 48.711 131.088 51.9469C128.795 52.3462 126.585 50.9555 124.272 50.804C120.912 50.6319 117.704 53.5924 117.635 56.9522C117.538 60.312 120.623 63.4171 123.983 63.3689C126.496 63.3414 128.96 61.8267 131.398 62.467C131.494 60.1743 133.064 58.2328 134.675 56.5942C137.807 53.4547 142.283 50.6181 146.469 52.1603C147.839 52.656 149.009 53.5786 150.152 54.4943C152.665 56.484 155.178 58.4944 157.698 60.5117C158.496 59.6924 159.288 58.8662 160.087 58.0744C161.457 59.5203 162.827 60.9592 164.218 62.4257C164.913 61.9506 165.636 61.5031 166.331 61.028C166.827 62.3224 167.35 63.5892 167.853 64.8836C168.053 63.4653 168.225 62.0746 168.397 60.6769C170.042 60.7251 171.784 60.7733 173.271 60.0297C174.765 59.3068 175.86 57.5168 175.234 55.9746C174.91 55.1553 174.139 54.5081 173.987 53.6337C173.664 51.8918 176.149 50.7007 177.767 51.4925C179.358 52.2636 180.156 54.0812 180.831 55.7474C181.203 54.0537 181.547 52.3875 181.926 50.6939C183.482 54.7835 185.726 58.6115 188.514 61.9713C183.413 61.0005 178.036 61.5582 173.265 63.5204C174.786 65.6616 177.395 66.9284 180.012 66.8251C181.182 66.7976 182.476 66.5291 183.371 67.2726C184.046 67.8441 184.218 68.7666 184.342 69.6135C184.742 72.0025 185.141 74.364 185.513 76.7256C182.821 74.5155 178.945 74.7634 175.433 74.6945C171.922 74.5981 167.819 73.6274 166.524 70.3708C165.133 71.9406 164.514 74.1782 164.913 76.2712C161.278 75.4037 157.099 74.0129 156.052 70.4259C153.216 71.4724 149.684 69.6617 148.913 66.7494C148.637 65.7304 148.562 64.4843 147.667 63.9404C147.123 63.6168 146.42 63.665 145.773 63.7407C140.375 64.3672 134.998 64.9662 129.628 65.5927C126.695 65.9438 123.659 66.295 121.07 67.7339C118.482 69.1522 116.423 71.9406 116.719 74.8804C111.769 77.8203 107.569 82.0751 104.733 87.0804C103.837 88.6226 103.066 90.392 103.417 92.1339C103.665 93.4765 104.56 94.6193 104.836 95.9412C105.311 98.2064 104.016 100.396 103.473 102.633C101.93 109.002 106.764 114.999 111.246 119.818C113.359 122.056 115.803 124.493 118.888 124.617C120.802 124.692 122.619 123.846 124.409 123.143C129.532 121.126 135.109 120.204 140.603 120.424C139.357 121.395 140.651 123.508 142.2 123.832C143.742 124.155 145.408 123.653 146.902 124.176C150.31 125.395 149.842 130.393 148.3 133.657C149.071 133.505 149.87 133.354 150.661 133.209C150.241 134.304 149.815 135.398 149.395 136.466C154.069 137.058 155.839 143.206 154.751 147.805C153.684 152.411 150.951 156.638 150.875 161.368C150.854 163.957 151.646 166.47 152.445 168.928C154.441 175.172 156.431 181.417 158.428 187.682C164.004 188.35 167.206 181.259 172.383 179.042C174.325 178.195 176.611 178.023 178.132 176.577C179.599 175.186 179.124 171.923 177.237 171.923C179.798 171.647 181.988 169.306 182.063 166.718C182.091 165.995 181.988 165.272 182.084 164.556C182.256 163.537 182.903 162.642 183.523 161.767C187.475 156.094 190.036 149.595 192.597 143.178C193.265 141.457 193.94 139.77 194.608 138.049C197.141 131.653 199.654 125.285 202.188 118.889C203.179 116.376 204.178 113.89 205.169 111.37C203.799 113.635 200.219 113.339 198.174 111.646C196.109 109.959 195.034 107.391 193.417 105.277C192.046 103.46 190.201 101.848 189.554 99.6315C189.182 98.3647 189.251 96.9946 189.031 95.6727C188.528 92.8086 186.642 90.4265 185.347 87.8377C184.053 85.249 183.378 81.8961 185.196 79.6241C190.428 88.7534 195.186 98.1513 199.489 107.783C199.964 106.289 201.059 104.995 202.449 104.272C203.468 103.721 204.611 103.501 205.685 103.053C208.522 101.807 210.484 98.7985 210.484 95.714C210.457 92.6296 208.494 89.6209 205.63 88.4023C204.212 87.8033 202.594 87.6105 201.252 86.7844C199.909 85.9926 198.938 84.175 199.785 82.8531C200.577 81.6069 202.498 81.6345 203.813 82.3298C205.135 83.0528 206.105 84.2714 207.345 85.0907C208.24 85.6897 209.286 86.0821 210.257 86.6329C215.51 89.6416 216.804 96.4851 217.906 102.454C218.505 105.663 219.18 108.85 219.978 111.983C220.006 111.308 219.999 110.613 219.999 109.945C219.971 81.0148 208.784 54.7215 190.511 35.0996ZM200.584 71.2452C199.861 71.197 199.193 70.722 198.615 70.2744C197.671 69.5309 196.721 68.6565 196.446 67.4861C196.122 66.0953 196.79 64.498 196.047 63.2588C195.695 62.6598 195.076 62.288 194.553 61.868C193.182 60.7733 192.184 59.2036 191.812 57.5168C191.489 56.0227 191.957 54.033 193.478 53.7852C194.201 53.6612 194.993 54.0606 195.317 54.7284L194.298 55.2792C196.012 55.4788 196.811 58.0676 195.496 59.1829C195.324 59.355 195.096 59.5065 195.096 59.7544C195.096 59.9058 195.193 60.0504 195.324 60.1537C196.391 61.3241 197.988 61.7441 199.379 62.4876C200.77 63.2106 202.14 64.5531 201.919 66.0953C201.472 66.2674 201.052 66.4189 200.604 66.591C200.129 67.0661 200.508 67.9129 201.004 68.3811C201.499 68.8493 202.147 69.3243 202.174 70.0197C202.174 70.7701 201.327 71.2934 200.584 71.2452Z" fill="#E9EFF4"/>
<path d="M201.3 147.791L199.503 149.065C200.129 151.268 198.876 153.85 196.749 154.71C195.626 155.165 194.132 155.364 193.754 156.514C193.437 157.492 194.194 158.483 194.298 159.502C194.463 161.196 192.879 162.463 191.736 163.723C190.594 164.983 189.988 167.351 191.509 168.108C191.86 168.287 192.267 168.322 192.659 168.356C194.311 168.501 196.122 168.549 197.472 167.585C201.341 164.824 197.664 157.333 201.485 154.497C202.029 154.098 202.711 153.808 203.007 153.203C203.909 151.419 200.583 149.65 201.3 147.791Z" fill="#E9EFF4"/>
<defs>
<linearGradient id="paint0_linear" x1="291.201" y1="220" x2="-71.2154" y2="-0.000534078" gradientUnits="userSpaceOnUse">
<stop stop-color="#001E35"/>
<stop offset="1" stop-color="#0086EE"/>
</linearGradient>
</defs>
</svg>
