<svg width="66" height="66" viewBox="0 0 66 66" fill="none" xmlns="http://www.w3.org/2000/svg">
<path d="M32.9911 21.9953C26.9316 21.9953 21.9867 26.9404 21.9867 33C21.9867 39.0596 26.9316 44.0047 32.9911 44.0047C39.0506 44.0047 43.9956 39.0596 43.9956 33C43.9956 26.9404 39.0506 21.9953 32.9911 21.9953ZM65.9963 33C65.9963 28.4429 66.0376 23.9271 65.7817 19.3783C65.5258 14.0947 64.3205 9.40556 60.4569 5.54195C56.5851 1.67008 51.9043 0.473023 46.6208 0.2171C42.0638 -0.0388224 37.5481 0.00245557 32.9994 0.00245557C28.4424 0.00245557 23.9267 -0.0388224 19.3779 0.2171C14.0945 0.473023 9.40538 1.67834 5.54185 5.54195C1.67005 9.41381 0.473015 14.0947 0.217096 19.3783C-0.0388217 23.9354 0.00245553 28.4512 0.00245553 33C0.00245553 37.5488 -0.0388217 42.0729 0.217096 46.6217C0.473015 51.9053 1.67831 56.5944 5.54185 60.458C9.41364 64.3299 14.0945 65.527 19.3779 65.7829C23.9349 66.0388 28.4506 65.9975 32.9994 65.9975C37.5564 65.9975 42.0721 66.0388 46.6208 65.7829C51.9043 65.527 56.5934 64.3217 60.4569 60.458C64.3287 56.5862 65.5258 51.9053 65.7817 46.6217C66.0459 42.0729 65.9963 37.5571 65.9963 33ZM32.9911 49.9322C23.6212 49.9322 16.0593 42.3701 16.0593 33C16.0593 23.6299 23.6212 16.0678 32.9911 16.0678C42.361 16.0678 49.923 23.6299 49.923 33C49.923 42.3701 42.361 49.9322 32.9911 49.9322ZM50.6165 19.3288C48.4288 19.3288 46.6621 17.5621 46.6621 15.3743C46.6621 13.1866 48.4288 11.4199 50.6165 11.4199C52.8041 11.4199 54.5708 13.1866 54.5708 15.3743C54.5715 15.8938 54.4696 16.4083 54.2711 16.8884C54.0726 17.3685 53.7814 17.8047 53.4141 18.172C53.0467 18.5393 52.6106 18.8306 52.1305 19.0291C51.6504 19.2276 51.1359 19.3294 50.6165 19.3288Z" fill="white"/>
</svg>
