<svg width="48" height="59" viewBox="0 0 48 59" fill="none" xmlns="http://www.w3.org/2000/svg">
<path d="M24.2514 0.730469C37.3136 0.730469 47.9017 11.3185 47.9017 24.3808C47.9017 34.3745 40.8793 45.2658 27.0166 57.171C26.2458 57.8332 25.263 58.1968 24.2468 58.1959C23.2306 58.1951 22.2485 57.8297 21.4788 57.1661L20.5619 56.3705C7.31291 44.7758 0.601074 34.1514 0.601074 24.3808C0.601074 11.3185 11.1891 0.730469 24.2514 0.730469ZM24.2514 15.2845C21.8389 15.2845 19.5252 16.2428 17.8193 17.9487C16.1135 19.6546 15.1551 21.9683 15.1551 24.3808C15.1551 26.7932 16.1135 29.1069 17.8193 30.8128C19.5252 32.5187 21.8389 33.477 24.2514 33.477C26.6639 33.477 28.9775 32.5187 30.6834 30.8128C32.3893 29.1069 33.3476 26.7932 33.3476 24.3808C33.3476 21.9683 32.3893 19.6546 30.6834 17.9487C28.9775 16.2428 26.6639 15.2845 24.2514 15.2845Z" fill="#FCB415"/>
</svg>
