<svg width="48" height="39" viewBox="0 0 48 39" fill="none" xmlns="http://www.w3.org/2000/svg">
<path d="M0.300537 11.2072L23.2069 23.1205C23.4367 23.2399 23.6919 23.3023 23.9508 23.3023C24.2098 23.3023 24.465 23.2399 24.6947 23.1205L47.6011 11.2093V31.9033C47.6012 33.6881 46.9184 35.4053 45.6926 36.7027C44.4668 38 42.7911 38.7791 41.0091 38.8802L40.6135 38.8909H7.28812C5.50331 38.891 3.7861 38.2082 2.48877 36.9824C1.19144 35.7566 0.412336 34.0809 0.311288 32.2989L0.300537 31.9033V11.2072ZM7.28812 0.19043H40.6135C42.3984 0.190313 44.1156 0.873179 45.4129 2.09895C46.7102 3.32472 47.4893 5.00046 47.5904 6.78241L47.6011 7.17802V7.57362L23.9508 19.8718L0.300537 7.57362V7.17802C0.30042 5.3932 0.983287 3.67599 2.20906 2.37866C3.43482 1.08133 5.11056 0.302228 6.89252 0.20118L7.28812 0.19043H40.6135H7.28812Z" fill="#FCB415"/>
</svg>
