<svg width="48" height="68" viewBox="0 0 48 68" fill="none" xmlns="http://www.w3.org/2000/svg">
<path d="M7.98425 1.48255L11.6196 0.320323C15.032 -0.76758 18.6707 0.99266 20.1336 4.43205L23.0358 11.2838C24.2994 14.2671 23.6 17.7774 21.2992 19.96L14.9002 26.0347C15.2921 29.6701 16.5152 33.248 18.5626 36.7685C20.5079 40.1748 23.117 43.1561 26.2353 45.5359L33.9216 42.9681C36.8373 41.9985 40.0098 43.1168 41.7937 45.742L45.9595 51.8572C48.0373 54.9114 47.6657 59.1211 45.0878 61.7091L42.3241 64.4829C39.574 67.2432 35.6447 68.2467 32.0127 67.1115C23.4345 64.4356 15.5489 56.4926 8.35251 43.2824C1.146 30.0518 -1.39807 18.8214 0.723677 9.60466C1.61562 5.72605 4.37592 2.63465 7.98425 1.48255Z" fill="#FCB415"/>
</svg>
