<svg width="66" height="66" viewBox="0 0 66 66" fill="none" xmlns="http://www.w3.org/2000/svg">
<path d="M33 0C14.7763 0 0 14.7763 0 33C0 51.2237 14.7763 66 33 66C51.2237 66 66 51.2237 66 33C66 14.7763 51.2237 0 33 0ZM48.8592 24.8752C48.8813 25.2214 48.8812 25.5824 48.8812 25.9359C48.8812 36.7493 40.646 49.2054 25.5971 49.2054C20.9565 49.2054 16.6547 47.8574 13.0306 45.5371C13.6935 45.6107 14.327 45.6402 15.0047 45.6402C18.835 45.6402 22.356 44.3438 25.1625 42.1487C21.5679 42.075 18.5478 39.7179 17.5165 36.4768C18.7761 36.6609 19.9105 36.6609 21.2069 36.3295C19.356 35.9534 17.6924 34.9482 16.4986 33.4846C15.3049 32.0209 14.6547 30.1892 14.6585 28.3004V28.1973C15.7413 28.8087 17.0156 29.1844 18.3489 29.2359C17.2281 28.489 16.3089 27.477 15.6729 26.2897C15.0368 25.1025 14.7036 23.7766 14.7027 22.4297C14.7027 20.9049 15.1004 19.5127 15.815 18.3047C17.8694 20.8337 20.433 22.9022 23.3391 24.3756C26.2453 25.8489 29.429 26.6943 32.6833 26.8567C31.5268 21.2953 35.6813 16.7946 40.6754 16.7946C43.0326 16.7946 45.154 17.7817 46.6493 19.3728C48.4982 19.0266 50.2661 18.3342 51.8424 17.406C51.231 19.2991 49.9493 20.8975 48.2478 21.9067C49.8978 21.7299 51.4888 21.2732 52.9621 20.6324C51.8498 22.2676 50.4576 23.7188 48.8592 24.8752Z" fill="white"/>
</svg>
